<mxfile host="app.diagrams.net" modified="2023-10-19T12:58:15.476Z" agent="Mozilla/5.0 (Windows NT 10.0; Win64; x64) AppleWebKit/537.36 (KHTML, like Gecko) Chrome/116.0.0.0 Safari/537.36 OPR/102.0.0.0" etag="_7TKlDDeGlGtsQA5rCrM" version="22.0.5" type="device">
  <diagram name="Page-1" id="_wAC_VCA0p9P3PtQ_74V">
    <mxGraphModel dx="1396" dy="2212" grid="1" gridSize="10" guides="1" tooltips="1" connect="1" arrows="1" fold="1" page="1" pageScale="1" pageWidth="850" pageHeight="1100" math="0" shadow="0">
      <root>
        <mxCell id="0" />
        <mxCell id="1" parent="0" />
        <mxCell id="WNhP4XTEa9MC39SPgcuT-5" value="" style="endArrow=open;html=1;endSize=12;startArrow=diamondThin;startSize=14;startFill=1;edgeStyle=orthogonalEdgeStyle;align=left;verticalAlign=bottom;rounded=0;entryX=0;entryY=0.5;entryDx=0;entryDy=0;exitX=0;exitY=0.5;exitDx=0;exitDy=0;" edge="1" parent="1" target="WNhP4XTEa9MC39SPgcuT-4">
          <mxGeometry x="-1" y="3" relative="1" as="geometry">
            <mxPoint x="-30" y="857" as="sourcePoint" />
            <mxPoint x="270" y="1060" as="targetPoint" />
            <Array as="points">
              <mxPoint x="-70" y="857" />
              <mxPoint x="-70" y="1014" />
            </Array>
          </mxGeometry>
        </mxCell>
        <mxCell id="WNhP4XTEa9MC39SPgcuT-43" value="" style="group" vertex="1" connectable="0" parent="1">
          <mxGeometry x="850" y="510" width="320" height="270" as="geometry" />
        </mxCell>
        <mxCell id="WNhP4XTEa9MC39SPgcuT-8" value="" style="rounded=0;whiteSpace=wrap;html=1;container=0;" vertex="1" parent="WNhP4XTEa9MC39SPgcuT-43">
          <mxGeometry width="320" height="270" as="geometry" />
        </mxCell>
        <mxCell id="WNhP4XTEa9MC39SPgcuT-9" value="Rotor" style="rounded=0;whiteSpace=wrap;html=1;container=0;" vertex="1" parent="WNhP4XTEa9MC39SPgcuT-43">
          <mxGeometry x="130.37037037037035" y="21.599999999999994" width="47.40740740740741" height="108" as="geometry" />
        </mxCell>
        <mxCell id="WNhP4XTEa9MC39SPgcuT-10" value="Rotor" style="rounded=0;whiteSpace=wrap;html=1;container=0;" vertex="1" parent="WNhP4XTEa9MC39SPgcuT-43">
          <mxGeometry x="248.8888888888889" y="21.599999999999994" width="47.40740740740741" height="108" as="geometry" />
        </mxCell>
        <mxCell id="WNhP4XTEa9MC39SPgcuT-11" value="Rotor" style="rounded=0;whiteSpace=wrap;html=1;container=0;" vertex="1" parent="WNhP4XTEa9MC39SPgcuT-43">
          <mxGeometry x="189.62962962962968" y="21.599999999999994" width="47.40740740740741" height="108" as="geometry" />
        </mxCell>
        <mxCell id="WNhP4XTEa9MC39SPgcuT-12" value="Plugboard" style="rounded=0;whiteSpace=wrap;html=1;container=0;" vertex="1" parent="WNhP4XTEa9MC39SPgcuT-43">
          <mxGeometry x="23.70370370370371" y="151.20000000000002" width="272.5925925925926" height="86.4" as="geometry" />
        </mxCell>
        <mxCell id="WNhP4XTEa9MC39SPgcuT-13" value="Reflector" style="rounded=0;whiteSpace=wrap;html=1;container=0;" vertex="1" parent="WNhP4XTEa9MC39SPgcuT-43">
          <mxGeometry x="23.703703703703706" y="43.19999999999999" width="94.81481481481482" height="64.8" as="geometry" />
        </mxCell>
        <mxCell id="WNhP4XTEa9MC39SPgcuT-58" style="edgeStyle=orthogonalEdgeStyle;rounded=0;orthogonalLoop=1;jettySize=auto;html=1;exitX=1;exitY=0.25;exitDx=0;exitDy=0;entryX=0;entryY=0.25;entryDx=0;entryDy=0;" edge="1" parent="1" source="WNhP4XTEa9MC39SPgcuT-44" target="WNhP4XTEa9MC39SPgcuT-46">
          <mxGeometry relative="1" as="geometry" />
        </mxCell>
        <mxCell id="WNhP4XTEa9MC39SPgcuT-60" style="edgeStyle=orthogonalEdgeStyle;rounded=0;orthogonalLoop=1;jettySize=auto;html=1;exitX=1;exitY=0.75;exitDx=0;exitDy=0;entryX=0;entryY=0.75;entryDx=0;entryDy=0;" edge="1" parent="1" source="WNhP4XTEa9MC39SPgcuT-44" target="WNhP4XTEa9MC39SPgcuT-59">
          <mxGeometry relative="1" as="geometry" />
        </mxCell>
        <mxCell id="WNhP4XTEa9MC39SPgcuT-44" value="" style="rounded=0;whiteSpace=wrap;html=1;" vertex="1" parent="1">
          <mxGeometry x="40" y="500" width="320" height="280" as="geometry" />
        </mxCell>
        <mxCell id="WNhP4XTEa9MC39SPgcuT-45" value="" style="group" vertex="1" connectable="0" parent="1">
          <mxGeometry x="80" y="520" width="250" height="228" as="geometry" />
        </mxCell>
        <mxCell id="WNhP4XTEa9MC39SPgcuT-34" value="ComponentCache" style="rounded=0;whiteSpace=wrap;html=1;" vertex="1" parent="WNhP4XTEa9MC39SPgcuT-45">
          <mxGeometry x="130" y="50" width="120" height="60" as="geometry" />
        </mxCell>
        <mxCell id="WNhP4XTEa9MC39SPgcuT-37" style="edgeStyle=orthogonalEdgeStyle;rounded=0;orthogonalLoop=1;jettySize=auto;html=1;exitX=1;exitY=0.5;exitDx=0;exitDy=0;exitPerimeter=0;entryX=0;entryY=0.25;entryDx=0;entryDy=0;" edge="1" parent="WNhP4XTEa9MC39SPgcuT-45" source="WNhP4XTEa9MC39SPgcuT-35" target="WNhP4XTEa9MC39SPgcuT-34">
          <mxGeometry relative="1" as="geometry" />
        </mxCell>
        <mxCell id="WNhP4XTEa9MC39SPgcuT-35" value="rotor_bank.xml&lt;br&gt;" style="verticalLabelPosition=bottom;html=1;verticalAlign=top;align=center;strokeColor=none;fillColor=#00BEF2;shape=mxgraph.azure.cloud_services_configuration_file;pointerEvents=1;" vertex="1" parent="WNhP4XTEa9MC39SPgcuT-45">
          <mxGeometry width="47.5" height="50" as="geometry" />
        </mxCell>
        <mxCell id="WNhP4XTEa9MC39SPgcuT-38" style="edgeStyle=orthogonalEdgeStyle;rounded=0;orthogonalLoop=1;jettySize=auto;html=1;exitX=1;exitY=0.5;exitDx=0;exitDy=0;exitPerimeter=0;entryX=0;entryY=0.75;entryDx=0;entryDy=0;" edge="1" parent="WNhP4XTEa9MC39SPgcuT-45" source="WNhP4XTEa9MC39SPgcuT-36" target="WNhP4XTEa9MC39SPgcuT-34">
          <mxGeometry relative="1" as="geometry" />
        </mxCell>
        <mxCell id="WNhP4XTEa9MC39SPgcuT-36" value="reflector_bank.xml&lt;br&gt;" style="verticalLabelPosition=bottom;html=1;verticalAlign=top;align=center;strokeColor=none;fillColor=#00BEF2;shape=mxgraph.azure.cloud_services_configuration_file;pointerEvents=1;" vertex="1" parent="WNhP4XTEa9MC39SPgcuT-45">
          <mxGeometry y="110" width="47.5" height="50" as="geometry" />
        </mxCell>
        <mxCell id="WNhP4XTEa9MC39SPgcuT-42" style="edgeStyle=orthogonalEdgeStyle;rounded=0;orthogonalLoop=1;jettySize=auto;html=1;entryX=0.5;entryY=1;entryDx=0;entryDy=0;" edge="1" parent="WNhP4XTEa9MC39SPgcuT-45" source="WNhP4XTEa9MC39SPgcuT-40" target="WNhP4XTEa9MC39SPgcuT-34">
          <mxGeometry relative="1" as="geometry" />
        </mxCell>
        <mxCell id="WNhP4XTEa9MC39SPgcuT-40" value="Pre-set rotors + reflectors" style="sketch=0;outlineConnect=0;fontColor=#232F3E;gradientColor=none;fillColor=#ED7100;strokeColor=none;dashed=0;verticalLabelPosition=bottom;verticalAlign=top;align=center;html=1;fontSize=12;fontStyle=0;aspect=fixed;pointerEvents=1;shape=mxgraph.aws4.braket_embedded_simulator;" vertex="1" parent="WNhP4XTEa9MC39SPgcuT-45">
          <mxGeometry x="151" y="150" width="78" height="78" as="geometry" />
        </mxCell>
        <mxCell id="WNhP4XTEa9MC39SPgcuT-46" value="" style="rounded=0;whiteSpace=wrap;html=1;" vertex="1" parent="1">
          <mxGeometry x="450" y="440" width="340" height="150" as="geometry" />
        </mxCell>
        <mxCell id="WNhP4XTEa9MC39SPgcuT-56" value="enigma_settings.xml" style="verticalLabelPosition=bottom;html=1;verticalAlign=top;align=center;strokeColor=none;fillColor=#00BEF2;shape=mxgraph.azure.cloud_services_configuration_file;pointerEvents=1;" vertex="1" parent="1">
          <mxGeometry x="510" y="480" width="47.5" height="50" as="geometry" />
        </mxCell>
        <mxCell id="WNhP4XTEa9MC39SPgcuT-57" value="EnigmaSimulatorCLI" style="rounded=0;whiteSpace=wrap;html=1;" vertex="1" parent="1">
          <mxGeometry x="630" y="480" width="120" height="60" as="geometry" />
        </mxCell>
        <mxCell id="WNhP4XTEa9MC39SPgcuT-59" value="" style="rounded=0;whiteSpace=wrap;html=1;" vertex="1" parent="1">
          <mxGeometry x="450" y="690" width="340" height="150" as="geometry" />
        </mxCell>
        <mxCell id="WNhP4XTEa9MC39SPgcuT-61" value="EnigmaSimulatorApp" style="rounded=0;whiteSpace=wrap;html=1;" vertex="1" parent="1">
          <mxGeometry x="500" y="735" width="250" height="60" as="geometry" />
        </mxCell>
        <mxCell id="WNhP4XTEa9MC39SPgcuT-62" style="edgeStyle=orthogonalEdgeStyle;rounded=0;orthogonalLoop=1;jettySize=auto;html=1;exitX=0;exitY=0.25;exitDx=0;exitDy=0;entryX=1;entryY=0.5;entryDx=0;entryDy=0;" edge="1" parent="1" source="WNhP4XTEa9MC39SPgcuT-8" target="WNhP4XTEa9MC39SPgcuT-46">
          <mxGeometry relative="1" as="geometry" />
        </mxCell>
        <mxCell id="WNhP4XTEa9MC39SPgcuT-63" style="edgeStyle=orthogonalEdgeStyle;rounded=0;orthogonalLoop=1;jettySize=auto;html=1;exitX=0;exitY=0.75;exitDx=0;exitDy=0;entryX=1;entryY=0.5;entryDx=0;entryDy=0;" edge="1" parent="1" source="WNhP4XTEa9MC39SPgcuT-8" target="WNhP4XTEa9MC39SPgcuT-59">
          <mxGeometry relative="1" as="geometry" />
        </mxCell>
      </root>
    </mxGraphModel>
  </diagram>
</mxfile>
